<?xml version="1.0" encoding="UTF-8" standalone="no"?>
<!-- Created with Inkscape (http://www.inkscape.org/) -->

<svg
   width="274.30447mm"
   height="240.49998mm"
   viewBox="0 0 274.30448 240.49999"
   version="1.1"
   id="svg1"
   inkscape:version="1.3.2 (091e20e, 2023-11-25, custom)"
   sodipodi:docname="handle.svg"
   xmlns:inkscape="http://www.inkscape.org/namespaces/inkscape"
   xmlns:sodipodi="http://sodipodi.sourceforge.net/DTD/sodipodi-0.dtd"
   xmlns="http://www.w3.org/2000/svg"
   xmlns:svg="http://www.w3.org/2000/svg">
  <sodipodi:namedview
     id="namedview1"
     pagecolor="#ffffff"
     bordercolor="#000000"
     borderopacity="0.25"
     inkscape:showpageshadow="2"
     inkscape:pageopacity="0.0"
     inkscape:pagecheckerboard="0"
     inkscape:deskcolor="#d1d1d1"
     inkscape:document-units="mm"
     showgrid="true"
     inkscape:zoom="1"
     inkscape:cx="733.99999"
     inkscape:cy="377.5"
     inkscape:window-width="2100"
     inkscape:window-height="1224"
     inkscape:window-x="2391"
     inkscape:window-y="-9"
     inkscape:window-maximized="1"
     inkscape:current-layer="layer1">
    <inkscape:grid
       id="grid1"
       units="mm"
       originx="-270.09777"
       originy="-39.499999"
       spacingx="0.99999998"
       spacingy="1"
       empcolor="#0099e5"
       empopacity="0.30196078"
       color="#0099e5"
       opacity="0.14901961"
       empspacing="5"
       dotted="false"
       gridanglex="30"
       gridanglez="30"
       visible="true" />
  </sodipodi:namedview>
  <defs
     id="defs1">
    <marker
       style="overflow:visible"
       id="marker66"
       refX="0"
       refY="0"
       orient="auto-start-reverse"
       inkscape:stockid="Triangle arrow"
       markerWidth="1"
       markerHeight="1"
       viewBox="0 0 1 1"
       inkscape:isstock="true"
       inkscape:collect="always"
       preserveAspectRatio="xMidYMid">
      <path
         transform="scale(0.5)"
         style="fill:context-stroke;fill-rule:evenodd;stroke:context-stroke;stroke-width:1pt"
         d="M 5.77,0 -2.88,5 V -5 Z"
         id="path66" />
    </marker>
    <inkscape:perspective
       sodipodi:type="inkscape:persp3d"
       inkscape:vp_x="338.34427 : -13.375796 : 1"
       inkscape:vp_y="0 : 632.16763 : 0"
       inkscape:vp_z="173.0866 : 2.428395 : 1"
       inkscape:persp3d-origin="457.16628 : -24.565767 : 1"
       id="perspective1" />
    <defs
       id="id-87c2b1bd-ec57-4382-a797-bc8a89e6601c">
      <g
         id="id-1be4029b-dbc5-49f2-b286-b58a56953405">
        <g
           id="id-87397523-cc8a-4891-b312-a5d6446e2fcd">
          <path
             d="m 6.640625,-6.75 h -6.09375 l -0.1875,2.25 h 0.25 C 0.75,-6.109375 0.890625,-6.4375 2.40625,-6.4375 c 0.171875,0 0.4375,0 0.53125,0.015625 0.21875,0.046875 0.21875,0.15625 0.21875,0.375 v 5.265625 c 0,0.328125 0,0.46875 -1.046875,0.46875 H 1.703125 V 0 C 2.109375,-0.03125 3.125,-0.03125 3.59375,-0.03125 c 0.453125,0 1.484375,0 1.890625,0.03125 v -0.3125 h -0.40625 c -1.046875,0 -1.046875,-0.140625 -1.046875,-0.46875 v -5.265625 c 0,-0.1875 0,-0.328125 0.1875,-0.375 0.109375,-0.015625 0.375,-0.015625 0.5625,-0.015625 1.515625,0 1.65625,0.328125 1.796875,1.9375 h 0.25 z m 0,0"
             id="id-19158c57-8189-4bcf-a9a5-ebddea014b34" />
        </g>
        <g
           id="id-c585b723-b444-4c58-9254-86e9acb4f503">
          <path
             d="m 1.09375,-0.75 c 0,0.4375 -0.109375,0.4375 -0.78125,0.4375 V 0 c 0.359375,-0.015625 0.859375,-0.03125 1.140625,-0.03125 0.25,0 0.765625,0.015625 1.109375,0.03125 v -0.3125 c -0.671875,0 -0.78125,0 -0.78125,-0.4375 V -2.59375 C 1.78125,-3.625 2.5,-4.1875 3.125,-4.1875 c 0.640625,0 0.75,0.53125 0.75,1.109375 V -0.75 c 0,0.4375 -0.109375,0.4375 -0.78125,0.4375 V 0 c 0.34375,-0.015625 0.859375,-0.03125 1.125,-0.03125 0.25,0 0.78125,0.015625 1.109375,0.03125 v -0.3125 c -0.515625,0 -0.765625,0 -0.765625,-0.296875 v -1.90625 c 0,-0.859375 0,-1.15625 -0.3125,-1.515625 -0.140625,-0.171875 -0.46875,-0.375 -1.046875,-0.375 -0.84375,0 -1.28125,0.59375 -1.453125,0.984375 v -3.5 L 0.3125,-6.8125 V -6.5 c 0.703125,0 0.78125,0.0625 0.78125,0.5625 z m 0,0"
             id="id-3351f46b-fe55-49a8-85c6-bceb1f8f2bd4" />
        </g>
        <g
           id="id-dfcaa948-8afc-49d0-a55e-ba16dc8fd2ed">
          <path
             d="M 1.671875,-3.3125 V -4.40625 L 0.28125,-4.296875 v 0.3125 c 0.703125,0 0.78125,0.0625 0.78125,0.5625 V -0.75 c 0,0.4375 -0.109375,0.4375 -0.78125,0.4375 V 0 c 0.390625,-0.015625 0.859375,-0.03125 1.140625,-0.03125 0.390625,0 0.859375,0 1.265625,0.03125 V -0.3125 H 2.46875 c -0.734375,0 -0.75,-0.109375 -0.75,-0.46875 V -2.3125 c 0,-0.984375 0.421875,-1.875 1.171875,-1.875 0.0625,0 0.09375,0 0.109375,0.015625 -0.03125,0 -0.234375,0.125 -0.234375,0.390625 0,0.265625 0.21875,0.421875 0.4375,0.421875 0.171875,0 0.421875,-0.125 0.421875,-0.4375 0,-0.3125 -0.3125,-0.609375 -0.734375,-0.609375 -0.734375,0 -1.09375,0.671875 -1.21875,1.09375 z m 0,0"
             id="id-2be27b55-b353-4a35-b401-0650c63f4353" />
        </g>
        <g
           id="id-2436ac3e-c589-4871-b153-e55c6700ff2e">
          <path
             d="M 1.109375,-2.515625 C 1.171875,-4 2.015625,-4.25 2.359375,-4.25 c 1.015625,0 1.125,1.34375 1.125,1.734375 z m 0,0.21875 h 2.78125 c 0.21875,0 0.25,0 0.25,-0.21875 0,-0.984375 -0.546875,-1.953125 -1.78125,-1.953125 -1.15625,0 -2.078125,1.03125 -2.078125,2.28125 0,1.328125 1.046875,2.296875 2.1875,2.296875 C 3.6875,0.109375 4.140625,-1 4.140625,-1.1875 4.140625,-1.28125 4.0625,-1.3125 4,-1.3125 c -0.078125,0 -0.109375,0.0625 -0.125,0.140625 -0.34375,1.03125 -1.25,1.03125 -1.34375,1.03125 -0.5,0 -0.890625,-0.296875 -1.125,-0.671875 -0.296875,-0.46875 -0.296875,-1.125 -0.296875,-1.484375 z m 0,0"
             id="id-f1008450-66c2-4ade-ae2f-942d13dd359e" />
        </g>
        <g
           id="id-33aac3bc-8947-4671-b2a7-38a262433b51">
          <path
             d="m 3.3125,-0.75 c 0.046875,0.390625 0.3125,0.8125 0.78125,0.8125 0.21875,0 0.828125,-0.140625 0.828125,-0.953125 v -0.5625 h -0.25 v 0.5625 c 0,0.578125 -0.25,0.640625 -0.359375,0.640625 -0.328125,0 -0.375,-0.453125 -0.375,-0.5 v -1.984375 c 0,-0.421875 0,-0.8125 -0.359375,-1.1875 C 3.1875,-4.3125 2.6875,-4.46875 2.21875,-4.46875 c -0.828125,0 -1.515625,0.46875 -1.515625,1.125 0,0.296875 0.203125,0.46875 0.46875,0.46875 0.28125,0 0.453125,-0.203125 0.453125,-0.453125 0,-0.125 -0.046875,-0.453125 -0.515625,-0.453125 C 1.390625,-4.140625 1.875,-4.25 2.1875,-4.25 c 0.5,0 1.0625,0.390625 1.0625,1.28125 v 0.359375 c -0.515625,0.03125 -1.203125,0.0625 -1.828125,0.359375 -0.75,0.34375 -1,0.859375 -1,1.296875 0,0.8125 0.96875,1.0625 1.59375,1.0625 0.65625,0 1.109375,-0.40625 1.296875,-0.859375 z M 3.25,-2.390625 v 1 c 0,0.9375 -0.71875,1.28125 -1.171875,1.28125 -0.484375,0 -0.890625,-0.34375 -0.890625,-0.84375 0,-0.546875 0.421875,-1.375 2.0625,-1.4375 z m 0,0"
             id="id-1d75f971-afee-440c-b7b9-e8d5cccb7e8a" />
        </g>
        <g
           id="id-c4e6b57a-5d2d-46aa-b0c9-f6dcd97865f2">
          <path
             d="m 3.78125,-0.546875 v 0.65625 L 5.25,0 v -0.3125 c -0.6875,0 -0.78125,-0.0625 -0.78125,-0.5625 V -6.921875 L 3.046875,-6.8125 V -6.5 c 0.6875,0 0.765625,0.0625 0.765625,0.5625 v 2.15625 c -0.28125,-0.359375 -0.71875,-0.625 -1.25,-0.625 -1.171875,0 -2.21875,0.984375 -2.21875,2.265625 0,1.265625 0.96875,2.25 2.109375,2.25 0.640625,0 1.078125,-0.34375 1.328125,-0.65625 z m 0,-2.671875 v 2.046875 c 0,0.171875 0,0.1875 -0.109375,0.359375 C 3.375,-0.328125 2.9375,-0.109375 2.5,-0.109375 2.046875,-0.109375 1.6875,-0.375 1.453125,-0.75 1.203125,-1.15625 1.171875,-1.71875 1.171875,-2.140625 1.171875,-2.5 1.1875,-3.09375 1.46875,-3.546875 1.6875,-3.859375 2.0625,-4.1875 2.609375,-4.1875 c 0.34375,0 0.765625,0.15625 1.0625,0.59375 0.109375,0.171875 0.109375,0.1875 0.109375,0.375 z m 0,0"
             id="id-b008ef41-3b37-43db-85a8-6e29566dff9c" />
        </g>
        <g
           id="id-fa717904-50fe-4d42-ad68-7f500a5419f7">
          <path
             d="m 2.046875,-3.984375 h 0.9375 c 0.203125,0 0.3125,0 0.3125,-0.203125 0,-0.109375 -0.109375,-0.109375 -0.28125,-0.109375 h -0.875 C 2.5,-5.71875 2.546875,-5.90625 2.546875,-5.96875 c 0,-0.171875 -0.125,-0.265625 -0.296875,-0.265625 -0.03125,0 -0.3125,0 -0.390625,0.359375 L 1.46875,-4.296875 h -0.9375 c -0.203125,0 -0.296875,0 -0.296875,0.1875 0,0.125 0.078125,0.125 0.28125,0.125 h 0.875 C 0.671875,-1.15625 0.625,-0.984375 0.625,-0.8125 0.625,-0.265625 1,0.109375 1.546875,0.109375 2.5625,0.109375 3.125,-1.34375 3.125,-1.421875 3.125,-1.53125 3.046875,-1.53125 3.015625,-1.53125 2.921875,-1.53125 2.90625,-1.5 2.859375,-1.390625 2.4375,-0.34375 1.90625,-0.109375 1.5625,-0.109375 c -0.203125,0 -0.3125,-0.125 -0.3125,-0.453125 0,-0.25 0.03125,-0.3125 0.0625,-0.484375 z m 0,0"
             id="id-db3461a0-34e5-455c-884e-44f20d2ed813" />
        </g>
        <g
           id="id-abbba41a-49af-467e-a5de-6aca1dfcdd85">
          <path
             d="M 3.59375,-2.21875 C 3.59375,-2.984375 3.5,-3.546875 3.1875,-4.03125 2.96875,-4.34375 2.53125,-4.625 1.984375,-4.625 c -1.625,0 -1.625,1.90625 -1.625,2.40625 0,0.5 0,2.359375 1.625,2.359375 1.609375,0 1.609375,-1.859375 1.609375,-2.359375 z M 1.984375,-0.0625 c -0.328125,0 -0.75,-0.1875 -0.890625,-0.75 C 1,-1.21875 1,-1.796875 1,-2.3125 1,-2.828125 1,-3.359375 1.09375,-3.734375 1.25,-4.28125 1.6875,-4.4375 1.984375,-4.4375 c 0.375,0 0.734375,0.234375 0.859375,0.640625 0.109375,0.375 0.125,0.875 0.125,1.484375 0,0.515625 0,1.03125 -0.09375,1.46875 -0.140625,0.640625 -0.609375,0.78125 -0.890625,0.78125 z m 0,0"
             id="id-8faed731-25f6-4796-ac45-a94bb5466d8a" />
        </g>
        <g
           id="id-79905533-118e-4b6b-ba8d-b37fc5279e27">
          <path
             d="m 2.328125,-4.4375 c 0,-0.1875 0,-0.1875 -0.203125,-0.1875 -0.453125,0.4375 -1.078125,0.4375 -1.359375,0.4375 v 0.25 c 0.15625,0 0.625,0 1,-0.1875 v 3.546875 c 0,0.234375 0,0.328125 -0.6875,0.328125 H 0.8125 V 0 c 0.125,0 0.984375,-0.03125 1.234375,-0.03125 0.21875,0 1.09375,0.03125 1.25,0.03125 V -0.25 H 3.03125 c -0.703125,0 -0.703125,-0.09375 -0.703125,-0.328125 z m 0,0"
             id="id-56c87e4b-bab4-4e5a-b56a-c7ef103b847d" />
        </g>
        <g
           id="id-580040ae-9a0f-47a9-9463-25860e006bb3">
          <path
             d="M 3.515625,-1.265625 H 3.28125 c -0.015625,0.15625 -0.09375,0.5625 -0.1875,0.625 C 3.046875,-0.59375 2.515625,-0.59375 2.40625,-0.59375 H 1.125 c 0.734375,-0.640625 0.984375,-0.84375 1.390625,-1.171875 0.515625,-0.40625 1,-0.84375 1,-1.5 0,-0.84375 -0.734375,-1.359375 -1.625,-1.359375 -0.859375,0 -1.453125,0.609375 -1.453125,1.25 0,0.34375 0.296875,0.390625 0.375,0.390625 0.15625,0 0.359375,-0.125 0.359375,-0.375 0,-0.125 -0.046875,-0.375 -0.40625,-0.375 C 0.984375,-4.21875 1.453125,-4.375 1.78125,-4.375 c 0.703125,0 1.0625,0.546875 1.0625,1.109375 0,0.609375 -0.4375,1.078125 -0.65625,1.328125 L 0.515625,-0.265625 C 0.4375,-0.203125 0.4375,-0.1875 0.4375,0 h 2.875 z m 0,0"
             id="id-5c1c1ff6-7c56-4928-bf0f-bab2d1a8702a" />
        </g>
      </g>
    </defs>
  </defs>
  <g
     inkscape:label="Layer 1"
     inkscape:groupmode="layer"
     id="layer1"
     transform="translate(-270.09778,-39.500011)">
    <rect
       style="fill:#ffffff;fill-opacity:1;fill-rule:evenodd;stroke:#ffffff;stroke-width:1;stroke-linecap:square;stroke-linejoin:miter;stroke-miterlimit:3.3;stroke-dasharray:none"
       id="rect80"
       width="273.30447"
       height="239.49998"
       x="270.59778"
       y="40.092594" />
    <g
       id="g56"
       style="fill:#aaffcc"
       transform="translate(0,19)">
      <rect
         style="fill:#aaffcc;fill-rule:evenodd;stroke:#000000;stroke-width:0.499999;stroke-linecap:round;stroke-linejoin:round;stroke-miterlimit:5.9;stroke-dasharray:none"
         id="rect16"
         width="54.5"
         height="24.5"
         x="340.50003"
         y="75.000008" />
      <g
         id="g43"
         transform="translate(110.25001,-5.2499912)"
         style="fill:#aaffcc">
        <path
           style="fill:#aaffcc;fill-rule:evenodd;stroke:#000000;stroke-width:0.499999;stroke-linecap:square;stroke-linejoin:round;stroke-miterlimit:5.9;stroke-dasharray:none"
           d="M 230.25001,80.25 H 284.75 l 15,-15 h -54.49999 z"
           id="path17" />
        <path
           style="fill:#aaffcc;fill-rule:evenodd;stroke:#000000;stroke-width:0.499999;stroke-linecap:round;stroke-linejoin:round;stroke-miterlimit:5.9;stroke-dasharray:none"
           d="m 284.75,104.75 15,-15 v -24.5 l -15,15 v 24.5"
           id="path18" />
      </g>
    </g>
    <g
       id="g45"
       transform="translate(110.25001,23.750009)"
       style="fill:#ffeeaa">
      <path
         id="rect18"
         style="fill:#ffeeaa;fill-rule:evenodd;stroke:#000000;stroke-width:0.499999;stroke-linecap:round;stroke-linejoin:round;stroke-miterlimit:3.3;stroke-dasharray:none"
         d="m 252.30374,47.565608 c -0.15234,0 -0.29905,0.02163 -0.43976,0.05788 a 1.75,1.75 0 0 0 -0.0243,0.0062 c -0.14506,0.0396 -0.28254,0.09676 -0.4098,0.170016 a 1.75,1.75 0 0 0 -0.004,0.0021 c -0.26416,0.15292 -0.48374,0.3725 -0.63666,0.636653 a 1.75,1.75 0 0 0 -0.002,0.0036 c -0.0733,0.12725 -0.13042,0.264733 -0.17002,0.409794 a 1.75,1.75 0 0 0 -0.006,0.02429 c -0.0363,0.140711 -0.0579,0.287427 -0.0579,0.439766 0,0.07679 0.007,0.151705 0.0165,0.225826 a 1.75,1.75 0 0 0 0.002,0.02429 h -0.0181 v 11.637016 h -2.01589 l -2.86081,3.093868 h 10.39316 l 2.86029,-3.093868 h -4.8767 V 51.065653 h 22.19658 v 10.137366 h -2.01642 l -2.86029,3.093868 h 10.39265 l 2.86081,-3.093868 h -4.87671 V 49.566003 h -0.0176 a 1.75,1.75 0 0 0 0.008,-0.0708 l 5.2e-4,-0.0052 a 1.75,1.75 0 0 0 0.009,-0.17415 1.75,1.75 0 0 0 -0.009,-0.166915 c -0.002,-0.0225 -0.006,-0.04442 -0.009,-0.06666 a 1.75,1.75 0 0 0 -0.0134,-0.0894 c -0.005,-0.02861 -0.0119,-0.05665 -0.0186,-0.08475 a 1.75,1.75 0 0 0 -0.0186,-0.07338 c -0.009,-0.03088 -0.0186,-0.06132 -0.0289,-0.09147 a 1.75,1.75 0 0 0 -0.0191,-0.05168 c -0.013,-0.03425 -0.0268,-0.06811 -0.0419,-0.101286 a 1.75,1.75 0 0 0 -0.0165,-0.03514 c -0.0187,-0.0389 -0.0385,-0.07699 -0.0599,-0.114205 a 1.75,1.75 0 0 0 -5.2e-4,-5.17e-4 c -0.0253,-0.04385 -0.0517,-0.08683 -0.0806,-0.128157 l -5.2e-4,-5.17e-4 a 1.75,1.75 0 0 0 -0.002,-0.0026 c -0.14365,-0.204392 -0.32988,-0.375993 -0.54622,-0.502811 -0.005,-0.0028 -0.01,-0.0055 -0.0145,-0.0083 -0.0341,-0.01954 -0.0689,-0.03752 -0.10438,-0.05478 a 1.75,1.75 0 0 0 -0.0444,-0.02119 c -0.0307,-0.01386 -0.0619,-0.02664 -0.0935,-0.03876 a 1.75,1.75 0 0 0 -0.0574,-0.02067 c -0.0322,-0.01106 -0.0647,-0.02128 -0.0977,-0.03049 a 1.75,1.75 0 0 0 -0.0563,-0.01447 c -0.0312,-0.0076 -0.0622,-0.01528 -0.0941,-0.02119 a 1.75,1.75 0 0 0 -0.0935,-0.01395 c -0.0207,-0.0027 -0.0411,-0.0063 -0.062,-0.0083 a 1.75,1.75 0 0 0 -0.16743,-0.0088 h -5.2e-4 z" />
      <path
         style="fill:#ffeeaa;fill-rule:evenodd;stroke:#1a1a1a;stroke-width:0.499999;stroke-linecap:round;stroke-linejoin:round;stroke-miterlimit:3.3;stroke-dasharray:none"
         d="m 250.5537,61.203039 v 1.346073"
         id="path34" />
      <path
         style="fill:#ffeeaa;fill-rule:evenodd;stroke:#1a1a1a;stroke-width:0.499999;stroke-linecap:round;stroke-linejoin:round;stroke-miterlimit:3.3;stroke-dasharray:none"
         d="m 254.05375,61.088462 v 0.729156"
         id="path35" />
      <path
         style="fill:#ffeeaa;fill-rule:evenodd;stroke:#1a1a1a;stroke-width:0.499999;stroke-linecap:round;stroke-linejoin:round;stroke-miterlimit:3.3;stroke-dasharray:none"
         d="m 276.25033,61.203019 v 1.346073"
         id="path36" />
      <path
         style="fill:#ffeeaa;fill-rule:evenodd;stroke:#1a1a1a;stroke-width:0.499999;stroke-linecap:round;stroke-linejoin:round;stroke-miterlimit:3.3;stroke-dasharray:none"
         d="m 279.75038,61.088442 v 0.729156"
         id="path37" />
    </g>
    <text
       xml:space="preserve"
       style="font-size:8.46667px;line-height:1.15;font-family:'CMU Typewriter Text';-inkscape-font-specification:'CMU Typewriter Text';text-align:center;letter-spacing:0px;word-spacing:0px;text-anchor:middle;fill:#d7f4d7;fill-rule:evenodd;stroke:#1a1a1a;stroke-width:0.499999;stroke-linecap:round;stroke-linejoin:round;stroke-miterlimit:3.3;stroke-dasharray:none"
       x="367.68652"
       y="107.93629"
       id="text45"><tspan
         sodipodi:role="line"
         id="tspan45"
         style="font-style:normal;font-variant:normal;font-weight:normal;font-stretch:normal;font-size:8.46667px;font-family:'CMU Serif';-inkscape-font-specification:'CMU Serif';fill:#000000;stroke:none;stroke-width:0.5"
         x="367.68652"
         y="107.93629">Memory</tspan></text>
    <g
       id="g47"
       transform="translate(-2.6148826,19)">
      <text
         xml:space="preserve"
         style="font-size:8.46667px;line-height:1.15;font-family:'CMU Typewriter Text';-inkscape-font-specification:'CMU Typewriter Text';text-align:center;letter-spacing:0px;word-spacing:0px;text-anchor:middle;fill:#d7f4d7;fill-rule:evenodd;stroke:#1a1a1a;stroke-width:0.499999;stroke-linecap:round;stroke-linejoin:round;stroke-miterlimit:3.3;stroke-dasharray:none"
         x="378"
         y="40.000011"
         id="text46"><tspan
           sodipodi:role="line"
           id="tspan46"
           style="font-style:normal;font-variant:normal;font-weight:normal;font-stretch:normal;font-size:8.46667px;font-family:'CMU Serif';-inkscape-font-specification:'CMU Serif';fill:#000000;stroke:none;stroke-width:0.5"
           x="378"
           y="40.000011">Handle</tspan></text>
      <text
         xml:space="preserve"
         style="font-size:8.46667px;line-height:1.15;font-family:'CMU Typewriter Text';-inkscape-font-specification:'CMU Typewriter Text';text-align:center;letter-spacing:0px;word-spacing:0px;text-anchor:middle;fill:#d7f4d7;fill-rule:evenodd;stroke:#1a1a1a;stroke-width:0.499999;stroke-linecap:round;stroke-linejoin:round;stroke-miterlimit:3.3;stroke-dasharray:none"
         x="378.3175"
         y="47.554253"
         id="text47"><tspan
           sodipodi:role="line"
           id="tspan47"
           style="font-style:normal;font-variant:normal;font-weight:normal;font-stretch:normal;font-size:8.46667px;font-family:'CMU Typewriter Text';-inkscape-font-specification:'CMU Typewriter Text';fill:#000000;stroke:none;stroke-width:0.5"
           x="378.3175"
           y="47.554253">pkt1</tspan></text>
    </g>
    <g
       id="g57"
       transform="translate(0,3.5)">
      <rect
         style="fill:#aaffcc;fill-opacity:1;fill-rule:evenodd;stroke:#000000;stroke-width:0.499999;stroke-linecap:round;stroke-linejoin:round;stroke-miterlimit:5.9;stroke-dasharray:none"
         id="rect47"
         width="54.5"
         height="24.5"
         x="340.50003"
         y="164" />
      <g
         id="g48"
         transform="translate(110.25001,83.750009)"
         style="fill:#aaffcc;fill-opacity:1">
        <path
           style="fill:#aaffcc;fill-opacity:1;fill-rule:evenodd;stroke:#000000;stroke-width:0.499999;stroke-linecap:square;stroke-linejoin:round;stroke-miterlimit:5.9;stroke-dasharray:none"
           d="M 230.25001,80.25 H 284.75 l 15,-15 h -54.49999 z"
           id="path47" />
        <path
           style="fill:#aaffcc;fill-opacity:1;fill-rule:evenodd;stroke:#000000;stroke-width:0.499999;stroke-linecap:round;stroke-linejoin:round;stroke-miterlimit:5.9;stroke-dasharray:none"
           d="m 284.75,104.75 15,-15 v -24.5 l -15,15 v 24.5"
           id="path48" />
      </g>
    </g>
    <g
       id="g53"
       transform="translate(40.25001,97.250009)"
       style="fill:#ffeeaa">
      <path
         id="path49"
         style="fill:#ffeeaa;fill-rule:evenodd;stroke:#000000;stroke-width:0.499999;stroke-linecap:round;stroke-linejoin:round;stroke-miterlimit:3.3;stroke-dasharray:none"
         d="m 252.30374,47.565608 c -0.15234,0 -0.29905,0.02163 -0.43976,0.05788 a 1.75,1.75 0 0 0 -0.0243,0.0062 c -0.14506,0.0396 -0.28254,0.09676 -0.4098,0.170016 a 1.75,1.75 0 0 0 -0.004,0.0021 c -0.26416,0.15292 -0.48374,0.3725 -0.63666,0.636653 a 1.75,1.75 0 0 0 -0.002,0.0036 c -0.0733,0.12725 -0.13042,0.264733 -0.17002,0.409794 a 1.75,1.75 0 0 0 -0.006,0.02429 c -0.0363,0.140711 -0.0579,0.287427 -0.0579,0.439766 0,0.07679 0.007,0.151705 0.0165,0.225826 a 1.75,1.75 0 0 0 0.002,0.02429 h -0.0181 v 11.637016 h -2.01589 l -2.86081,3.093868 h 10.39316 l 2.86029,-3.093868 h -4.8767 V 51.065653 h 22.19658 v 10.137366 h -2.01642 l -2.86029,3.093868 h 10.39265 l 2.86081,-3.093868 h -4.87671 V 49.566003 h -0.0176 a 1.75,1.75 0 0 0 0.008,-0.0708 l 5.2e-4,-0.0052 a 1.75,1.75 0 0 0 0.009,-0.17415 1.75,1.75 0 0 0 -0.009,-0.166915 c -0.002,-0.0225 -0.006,-0.04442 -0.009,-0.06666 a 1.75,1.75 0 0 0 -0.0134,-0.0894 c -0.005,-0.02861 -0.0119,-0.05665 -0.0186,-0.08475 a 1.75,1.75 0 0 0 -0.0186,-0.07338 c -0.009,-0.03088 -0.0186,-0.06132 -0.0289,-0.09147 a 1.75,1.75 0 0 0 -0.0191,-0.05168 c -0.013,-0.03425 -0.0268,-0.06811 -0.0419,-0.101286 a 1.75,1.75 0 0 0 -0.0165,-0.03514 c -0.0187,-0.0389 -0.0385,-0.07699 -0.0599,-0.114205 a 1.75,1.75 0 0 0 -5.2e-4,-5.17e-4 c -0.0253,-0.04385 -0.0517,-0.08683 -0.0806,-0.128157 l -5.2e-4,-5.17e-4 a 1.75,1.75 0 0 0 -0.002,-0.0026 c -0.14365,-0.204392 -0.32988,-0.375993 -0.54622,-0.502811 -0.005,-0.0028 -0.01,-0.0055 -0.0145,-0.0083 -0.0341,-0.01954 -0.0689,-0.03752 -0.10438,-0.05478 a 1.75,1.75 0 0 0 -0.0444,-0.02119 c -0.0307,-0.01386 -0.0619,-0.02664 -0.0935,-0.03876 a 1.75,1.75 0 0 0 -0.0574,-0.02067 c -0.0322,-0.01106 -0.0647,-0.02128 -0.0977,-0.03049 a 1.75,1.75 0 0 0 -0.0563,-0.01447 c -0.0312,-0.0076 -0.0622,-0.01528 -0.0941,-0.02119 a 1.75,1.75 0 0 0 -0.0935,-0.01395 c -0.0207,-0.0027 -0.0411,-0.0063 -0.062,-0.0083 a 1.75,1.75 0 0 0 -0.16743,-0.0088 h -5.2e-4 z" />
      <path
         style="fill:#ffeeaa;fill-rule:evenodd;stroke:#1a1a1a;stroke-width:0.499999;stroke-linecap:round;stroke-linejoin:round;stroke-miterlimit:3.3;stroke-dasharray:none"
         d="m 250.5537,61.203039 v 1.346073"
         id="path50" />
      <path
         style="fill:#ffeeaa;fill-rule:evenodd;stroke:#1a1a1a;stroke-width:0.499999;stroke-linecap:round;stroke-linejoin:round;stroke-miterlimit:3.3;stroke-dasharray:none"
         d="m 254.05375,61.088462 v 0.729156"
         id="path51" />
      <path
         style="fill:#ffeeaa;fill-rule:evenodd;stroke:#1a1a1a;stroke-width:0.499999;stroke-linecap:round;stroke-linejoin:round;stroke-miterlimit:3.3;stroke-dasharray:none"
         d="m 276.25033,61.203019 v 1.346073"
         id="path52" />
      <path
         style="fill:#ffeeaa;fill-rule:evenodd;stroke:#1a1a1a;stroke-width:0.499999;stroke-linecap:round;stroke-linejoin:round;stroke-miterlimit:3.3;stroke-dasharray:none"
         d="m 279.75038,61.088442 v 0.729156"
         id="path53" />
    </g>
    <text
       xml:space="preserve"
       style="font-size:8.46667px;line-height:1.15;font-family:'CMU Typewriter Text';-inkscape-font-specification:'CMU Typewriter Text';text-align:center;letter-spacing:0px;word-spacing:0px;text-anchor:middle;fill:#d7f4d7;fill-rule:evenodd;stroke:#1a1a1a;stroke-width:0.499999;stroke-linecap:round;stroke-linejoin:round;stroke-miterlimit:3.3;stroke-dasharray:none"
       x="367.68652"
       y="181.43628"
       id="text53"><tspan
         sodipodi:role="line"
         id="tspan53"
         style="font-style:normal;font-variant:normal;font-weight:normal;font-stretch:normal;font-size:8.46667px;font-family:'CMU Serif';-inkscape-font-specification:'CMU Serif';fill:#000000;stroke:none;stroke-width:0.5"
         x="367.68652"
         y="181.43628">Memory</tspan></text>
    <g
       id="g55"
       transform="translate(-72.614883,92.5)">
      <text
         xml:space="preserve"
         style="font-size:8.46667px;line-height:1.15;font-family:'CMU Typewriter Text';-inkscape-font-specification:'CMU Typewriter Text';text-align:center;letter-spacing:0px;word-spacing:0px;text-anchor:middle;fill:#d7f4d7;fill-rule:evenodd;stroke:#1a1a1a;stroke-width:0.499999;stroke-linecap:round;stroke-linejoin:round;stroke-miterlimit:3.3;stroke-dasharray:none"
         x="378"
         y="40.000011"
         id="text54"><tspan
           sodipodi:role="line"
           id="tspan54"
           style="font-style:normal;font-variant:normal;font-weight:normal;font-stretch:normal;font-size:8.46667px;font-family:'CMU Serif';-inkscape-font-specification:'CMU Serif';fill:#000000;stroke:none;stroke-width:0.5"
           x="378"
           y="40.000011">Handle</tspan></text>
      <text
         xml:space="preserve"
         style="font-size:8.46667px;line-height:1.15;font-family:'CMU Typewriter Text';-inkscape-font-specification:'CMU Typewriter Text';text-align:center;letter-spacing:0px;word-spacing:0px;text-anchor:middle;fill:#d7f4d7;fill-rule:evenodd;stroke:#1a1a1a;stroke-width:0.499999;stroke-linecap:round;stroke-linejoin:round;stroke-miterlimit:3.3;stroke-dasharray:none"
         x="378.3175"
         y="47.554253"
         id="text55"><tspan
           sodipodi:role="line"
           id="tspan55"
           style="font-style:normal;font-variant:normal;font-weight:normal;font-stretch:normal;font-size:8.46667px;font-family:'CMU Typewriter Text';-inkscape-font-specification:'CMU Typewriter Text';fill:#000000;stroke:none;stroke-width:0.5"
           x="378.3175"
           y="47.554253">pkt2</tspan></text>
    </g>
    <g
       id="g66">
      <g
         id="g59"
         transform="translate(0,77)">
        <rect
           style="fill:#aaffcc;fill-opacity:1;fill-rule:evenodd;stroke:#000000;stroke-width:0.499999;stroke-linecap:round;stroke-linejoin:round;stroke-miterlimit:5.9;stroke-dasharray:none"
           id="rect57"
           width="54.5"
           height="24.5"
           x="340.50003"
           y="164" />
        <g
           id="g58"
           transform="translate(110.25001,83.750009)"
           style="fill:#aaffcc;fill-opacity:1">
          <path
             style="fill:#aaffcc;fill-opacity:1;fill-rule:evenodd;stroke:#000000;stroke-width:0.499999;stroke-linecap:square;stroke-linejoin:round;stroke-miterlimit:5.9;stroke-dasharray:none"
             d="M 230.25001,80.25 H 284.75 l 15,-15 h -54.49999 z"
             id="path57" />
          <path
             style="fill:#aaffcc;fill-opacity:1;fill-rule:evenodd;stroke:#000000;stroke-width:0.499999;stroke-linecap:round;stroke-linejoin:round;stroke-miterlimit:5.9;stroke-dasharray:none"
             d="m 284.75,104.75 15,-15 v -24.5 l -15,15 v 24.5"
             id="path58" />
        </g>
      </g>
      <g
         id="g63"
         transform="translate(40.25001,170.75001)"
         style="fill:#ffeeaa">
        <path
           id="path59"
           style="fill:#ffeeaa;fill-rule:evenodd;stroke:#000000;stroke-width:0.499999;stroke-linecap:round;stroke-linejoin:round;stroke-miterlimit:3.3;stroke-dasharray:none"
           d="m 252.30374,47.565608 c -0.15234,0 -0.29905,0.02163 -0.43976,0.05788 a 1.75,1.75 0 0 0 -0.0243,0.0062 c -0.14506,0.0396 -0.28254,0.09676 -0.4098,0.170016 a 1.75,1.75 0 0 0 -0.004,0.0021 c -0.26416,0.15292 -0.48374,0.3725 -0.63666,0.636653 a 1.75,1.75 0 0 0 -0.002,0.0036 c -0.0733,0.12725 -0.13042,0.264733 -0.17002,0.409794 a 1.75,1.75 0 0 0 -0.006,0.02429 c -0.0363,0.140711 -0.0579,0.287427 -0.0579,0.439766 0,0.07679 0.007,0.151705 0.0165,0.225826 a 1.75,1.75 0 0 0 0.002,0.02429 h -0.0181 v 11.637016 h -2.01589 l -2.86081,3.093868 h 10.39316 l 2.86029,-3.093868 h -4.8767 V 51.065653 h 22.19658 v 10.137366 h -2.01642 l -2.86029,3.093868 h 10.39265 l 2.86081,-3.093868 h -4.87671 V 49.566003 h -0.0176 a 1.75,1.75 0 0 0 0.008,-0.0708 l 5.2e-4,-0.0052 a 1.75,1.75 0 0 0 0.009,-0.17415 1.75,1.75 0 0 0 -0.009,-0.166915 c -0.002,-0.0225 -0.006,-0.04442 -0.009,-0.06666 a 1.75,1.75 0 0 0 -0.0134,-0.0894 c -0.005,-0.02861 -0.0119,-0.05665 -0.0186,-0.08475 a 1.75,1.75 0 0 0 -0.0186,-0.07338 c -0.009,-0.03088 -0.0186,-0.06132 -0.0289,-0.09147 a 1.75,1.75 0 0 0 -0.0191,-0.05168 c -0.013,-0.03425 -0.0268,-0.06811 -0.0419,-0.101286 a 1.75,1.75 0 0 0 -0.0165,-0.03514 c -0.0187,-0.0389 -0.0385,-0.07699 -0.0599,-0.114205 a 1.75,1.75 0 0 0 -5.2e-4,-5.17e-4 c -0.0253,-0.04385 -0.0517,-0.08683 -0.0806,-0.128157 l -5.2e-4,-5.17e-4 a 1.75,1.75 0 0 0 -0.002,-0.0026 c -0.14365,-0.204392 -0.32988,-0.375993 -0.54622,-0.502811 -0.005,-0.0028 -0.01,-0.0055 -0.0145,-0.0083 -0.0341,-0.01954 -0.0689,-0.03752 -0.10438,-0.05478 a 1.75,1.75 0 0 0 -0.0444,-0.02119 c -0.0307,-0.01386 -0.0619,-0.02664 -0.0935,-0.03876 a 1.75,1.75 0 0 0 -0.0574,-0.02067 c -0.0322,-0.01106 -0.0647,-0.02128 -0.0977,-0.03049 a 1.75,1.75 0 0 0 -0.0563,-0.01447 c -0.0312,-0.0076 -0.0622,-0.01528 -0.0941,-0.02119 a 1.75,1.75 0 0 0 -0.0935,-0.01395 c -0.0207,-0.0027 -0.0411,-0.0063 -0.062,-0.0083 a 1.75,1.75 0 0 0 -0.16743,-0.0088 h -5.2e-4 z" />
        <path
           style="fill:#ffeeaa;fill-rule:evenodd;stroke:#1a1a1a;stroke-width:0.499999;stroke-linecap:round;stroke-linejoin:round;stroke-miterlimit:3.3;stroke-dasharray:none"
           d="m 250.5537,61.203039 v 1.346073"
           id="path60" />
        <path
           style="fill:#ffeeaa;fill-rule:evenodd;stroke:#1a1a1a;stroke-width:0.499999;stroke-linecap:round;stroke-linejoin:round;stroke-miterlimit:3.3;stroke-dasharray:none"
           d="m 254.05375,61.088462 v 0.729156"
           id="path61" />
        <path
           style="fill:#ffeeaa;fill-rule:evenodd;stroke:#1a1a1a;stroke-width:0.499999;stroke-linecap:round;stroke-linejoin:round;stroke-miterlimit:3.3;stroke-dasharray:none"
           d="m 276.25033,61.203019 v 1.346073"
           id="path62" />
        <path
           style="fill:#ffeeaa;fill-rule:evenodd;stroke:#1a1a1a;stroke-width:0.499999;stroke-linecap:round;stroke-linejoin:round;stroke-miterlimit:3.3;stroke-dasharray:none"
           d="m 279.75038,61.088442 v 0.729156"
           id="path63" />
      </g>
      <text
         xml:space="preserve"
         style="font-size:8.46667px;line-height:1.15;font-family:'CMU Typewriter Text';-inkscape-font-specification:'CMU Typewriter Text';text-align:center;letter-spacing:0px;word-spacing:0px;text-anchor:middle;fill:#d7f4d7;fill-rule:evenodd;stroke:#1a1a1a;stroke-width:0.499999;stroke-linecap:round;stroke-linejoin:round;stroke-miterlimit:3.3;stroke-dasharray:none"
         x="367.68652"
         y="254.93628"
         id="text63"><tspan
           sodipodi:role="line"
           id="tspan63"
           style="font-style:normal;font-variant:normal;font-weight:normal;font-stretch:normal;font-size:8.46667px;font-family:'CMU Serif';-inkscape-font-specification:'CMU Serif';fill:#000000;stroke:none;stroke-width:0.5"
           x="367.68652"
           y="254.93628">Memory</tspan></text>
      <g
         id="g65"
         transform="translate(-72.614883,166)">
        <text
           xml:space="preserve"
           style="font-size:8.46667px;line-height:1.15;font-family:'CMU Typewriter Text';-inkscape-font-specification:'CMU Typewriter Text';text-align:center;letter-spacing:0px;word-spacing:0px;text-anchor:middle;fill:#d7f4d7;fill-rule:evenodd;stroke:#1a1a1a;stroke-width:0.499999;stroke-linecap:round;stroke-linejoin:round;stroke-miterlimit:3.3;stroke-dasharray:none"
           x="378"
           y="40.000011"
           id="text64"><tspan
             sodipodi:role="line"
             id="tspan64"
             style="font-style:normal;font-variant:normal;font-weight:normal;font-stretch:normal;font-size:8.46667px;font-family:'CMU Serif';-inkscape-font-specification:'CMU Serif';fill:#000000;stroke:none;stroke-width:0.5"
             x="378"
             y="40.000011">Handle</tspan></text>
        <text
           xml:space="preserve"
           style="font-size:8.46667px;line-height:1.15;font-family:'CMU Typewriter Text';-inkscape-font-specification:'CMU Typewriter Text';text-align:center;letter-spacing:0px;word-spacing:0px;text-anchor:middle;fill:#d7f4d7;fill-rule:evenodd;stroke:#1a1a1a;stroke-width:0.499999;stroke-linecap:round;stroke-linejoin:round;stroke-miterlimit:3.3;stroke-dasharray:none"
           x="378.3175"
           y="47.554253"
           id="text65"><tspan
             sodipodi:role="line"
             id="tspan65"
             style="font-style:normal;font-variant:normal;font-weight:normal;font-stretch:normal;font-size:8.46667px;font-family:'CMU Typewriter Text';-inkscape-font-specification:'CMU Typewriter Text';fill:#000000;stroke:none;stroke-width:0.5"
             x="378.3175"
             y="47.554253">pkt3</tspan></text>
      </g>
    </g>
    <path
       style="fill:#000000;fill-opacity:1;fill-rule:evenodd;stroke:#000000;stroke-width:1;stroke-linecap:square;stroke-linejoin:miter;stroke-miterlimit:3.3;stroke-dasharray:none;marker-end:url(#marker66)"
       d="m 422.71592,245.75001 h 23.75064"
       id="path65" />
    <g
       id="g74"
       style="fill:#aaffcc"
       transform="translate(120,166)">
      <rect
         style="fill:#aaffcc;fill-rule:evenodd;stroke:#000000;stroke-width:0.499999;stroke-linecap:round;stroke-linejoin:round;stroke-miterlimit:5.9;stroke-dasharray:none"
         id="rect72"
         width="54.5"
         height="24.5"
         x="340.50003"
         y="75.000008" />
      <g
         id="g73"
         transform="translate(110.25001,-5.2499912)"
         style="fill:#aaffcc">
        <path
           style="fill:#aaffcc;fill-rule:evenodd;stroke:#000000;stroke-width:0.499999;stroke-linecap:square;stroke-linejoin:round;stroke-miterlimit:5.9;stroke-dasharray:none"
           d="M 230.25001,80.25 H 284.75 l 15,-15 h -54.49999 z"
           id="path72" />
        <path
           style="fill:#aaffcc;fill-rule:evenodd;stroke:#000000;stroke-width:0.499999;stroke-linecap:round;stroke-linejoin:round;stroke-miterlimit:5.9;stroke-dasharray:none"
           d="m 284.75,104.75 15,-15 v -24.5 l -15,15 v 24.5"
           id="path73" />
      </g>
    </g>
    <g
       id="g78"
       transform="translate(230.25001,170.75001)"
       style="fill:#ffeeaa">
      <path
         id="path74"
         style="fill:#ffeeaa;fill-rule:evenodd;stroke:#000000;stroke-width:0.499999;stroke-linecap:round;stroke-linejoin:round;stroke-miterlimit:3.3;stroke-dasharray:none"
         d="m 252.30374,47.565608 c -0.15234,0 -0.29905,0.02163 -0.43976,0.05788 a 1.75,1.75 0 0 0 -0.0243,0.0062 c -0.14506,0.0396 -0.28254,0.09676 -0.4098,0.170016 a 1.75,1.75 0 0 0 -0.004,0.0021 c -0.26416,0.15292 -0.48374,0.3725 -0.63666,0.636653 a 1.75,1.75 0 0 0 -0.002,0.0036 c -0.0733,0.12725 -0.13042,0.264733 -0.17002,0.409794 a 1.75,1.75 0 0 0 -0.006,0.02429 c -0.0363,0.140711 -0.0579,0.287427 -0.0579,0.439766 0,0.07679 0.007,0.151705 0.0165,0.225826 a 1.75,1.75 0 0 0 0.002,0.02429 h -0.0181 v 11.637016 h -2.01589 l -2.86081,3.093868 h 10.39316 l 2.86029,-3.093868 h -4.8767 V 51.065653 h 22.19658 v 10.137366 h -2.01642 l -2.86029,3.093868 h 10.39265 l 2.86081,-3.093868 h -4.87671 V 49.566003 h -0.0176 a 1.75,1.75 0 0 0 0.008,-0.0708 l 5.2e-4,-0.0052 a 1.75,1.75 0 0 0 0.009,-0.17415 1.75,1.75 0 0 0 -0.009,-0.166915 c -0.002,-0.0225 -0.006,-0.04442 -0.009,-0.06666 a 1.75,1.75 0 0 0 -0.0134,-0.0894 c -0.005,-0.02861 -0.0119,-0.05665 -0.0186,-0.08475 a 1.75,1.75 0 0 0 -0.0186,-0.07338 c -0.009,-0.03088 -0.0186,-0.06132 -0.0289,-0.09147 a 1.75,1.75 0 0 0 -0.0191,-0.05168 c -0.013,-0.03425 -0.0268,-0.06811 -0.0419,-0.101286 a 1.75,1.75 0 0 0 -0.0165,-0.03514 c -0.0187,-0.0389 -0.0385,-0.07699 -0.0599,-0.114205 a 1.75,1.75 0 0 0 -5.2e-4,-5.17e-4 c -0.0253,-0.04385 -0.0517,-0.08683 -0.0806,-0.128157 l -5.2e-4,-5.17e-4 a 1.75,1.75 0 0 0 -0.002,-0.0026 c -0.14365,-0.204392 -0.32988,-0.375993 -0.54622,-0.502811 -0.005,-0.0028 -0.01,-0.0055 -0.0145,-0.0083 -0.0341,-0.01954 -0.0689,-0.03752 -0.10438,-0.05478 a 1.75,1.75 0 0 0 -0.0444,-0.02119 c -0.0307,-0.01386 -0.0619,-0.02664 -0.0935,-0.03876 a 1.75,1.75 0 0 0 -0.0574,-0.02067 c -0.0322,-0.01106 -0.0647,-0.02128 -0.0977,-0.03049 a 1.75,1.75 0 0 0 -0.0563,-0.01447 c -0.0312,-0.0076 -0.0622,-0.01528 -0.0941,-0.02119 a 1.75,1.75 0 0 0 -0.0935,-0.01395 c -0.0207,-0.0027 -0.0411,-0.0063 -0.062,-0.0083 a 1.75,1.75 0 0 0 -0.16743,-0.0088 h -5.2e-4 z" />
      <path
         style="fill:#ffeeaa;fill-rule:evenodd;stroke:#1a1a1a;stroke-width:0.499999;stroke-linecap:round;stroke-linejoin:round;stroke-miterlimit:3.3;stroke-dasharray:none"
         d="m 250.5537,61.203039 v 1.346073"
         id="path75" />
      <path
         style="fill:#ffeeaa;fill-rule:evenodd;stroke:#1a1a1a;stroke-width:0.499999;stroke-linecap:round;stroke-linejoin:round;stroke-miterlimit:3.3;stroke-dasharray:none"
         d="m 254.05375,61.088462 v 0.729156"
         id="path76" />
      <path
         style="fill:#ffeeaa;fill-rule:evenodd;stroke:#1a1a1a;stroke-width:0.499999;stroke-linecap:round;stroke-linejoin:round;stroke-miterlimit:3.3;stroke-dasharray:none"
         d="m 276.25033,61.203019 v 1.346073"
         id="path77" />
      <path
         style="fill:#ffeeaa;fill-rule:evenodd;stroke:#1a1a1a;stroke-width:0.499999;stroke-linecap:round;stroke-linejoin:round;stroke-miterlimit:3.3;stroke-dasharray:none"
         d="m 279.75038,61.088442 v 0.729156"
         id="path78" />
    </g>
    <text
       xml:space="preserve"
       style="font-size:8.46667px;line-height:1.15;font-family:'CMU Typewriter Text';-inkscape-font-specification:'CMU Typewriter Text';text-align:center;letter-spacing:0px;word-spacing:0px;text-anchor:middle;fill:#d7f4d7;fill-rule:evenodd;stroke:#1a1a1a;stroke-width:0.499999;stroke-linecap:round;stroke-linejoin:round;stroke-miterlimit:3.3;stroke-dasharray:none"
       x="487.68652"
       y="254.93628"
       id="text78"><tspan
         sodipodi:role="line"
         id="tspan78"
         style="font-style:normal;font-variant:normal;font-weight:normal;font-stretch:normal;font-size:8.46667px;font-family:'CMU Serif';-inkscape-font-specification:'CMU Serif';fill:#000000;stroke:none;stroke-width:0.5"
         x="487.68652"
         y="254.93628">Memory</tspan></text>
    <g
       id="g80"
       transform="translate(117.38512,166)">
      <text
         xml:space="preserve"
         style="font-size:8.46667px;line-height:1.15;font-family:'CMU Typewriter Text';-inkscape-font-specification:'CMU Typewriter Text';text-align:center;letter-spacing:0px;word-spacing:0px;text-anchor:middle;fill:#d7f4d7;fill-rule:evenodd;stroke:#1a1a1a;stroke-width:0.499999;stroke-linecap:round;stroke-linejoin:round;stroke-miterlimit:3.3;stroke-dasharray:none"
         x="378"
         y="40.000011"
         id="text79"><tspan
           sodipodi:role="line"
           id="tspan79"
           style="font-style:normal;font-variant:normal;font-weight:normal;font-stretch:normal;font-size:8.46667px;font-family:'CMU Serif';-inkscape-font-specification:'CMU Serif';fill:#000000;stroke:none;stroke-width:0.5"
           x="378"
           y="40.000011">Handle</tspan></text>
      <text
         xml:space="preserve"
         style="font-size:8.46667px;line-height:1.15;font-family:'CMU Typewriter Text';-inkscape-font-specification:'CMU Typewriter Text';text-align:center;letter-spacing:0px;word-spacing:0px;text-anchor:middle;fill:#d7f4d7;fill-rule:evenodd;stroke:#1a1a1a;stroke-width:0.499999;stroke-linecap:round;stroke-linejoin:round;stroke-miterlimit:3.3;stroke-dasharray:none"
         x="378.3175"
         y="47.554253"
         id="text80"><tspan
           sodipodi:role="line"
           id="tspan80"
           style="font-style:normal;font-variant:normal;font-weight:normal;font-stretch:normal;font-size:8.46667px;font-family:'CMU Typewriter Text';-inkscape-font-specification:'CMU Typewriter Text';fill:#000000;stroke:none;stroke-width:0.5"
           x="378.3175"
           y="47.554253">pkt3</tspan></text>
    </g>
  </g>
</svg>
