<?xml version="1.0" encoding="UTF-8" standalone="no"?>
<!-- Created with Inkscape (http://www.inkscape.org/) -->

<svg
   width="236.05336mm"
   height="148.81152mm"
   viewBox="0 0 236.05336 148.81152"
   version="1.1"
   id="svg1"
   inkscape:version="1.3.2 (091e20e, 2023-11-25, custom)"
   sodipodi:docname="concurrency.svg"
   xmlns:inkscape="http://www.inkscape.org/namespaces/inkscape"
   xmlns:sodipodi="http://sodipodi.sourceforge.net/DTD/sodipodi-0.dtd"
   xmlns="http://www.w3.org/2000/svg"
   xmlns:svg="http://www.w3.org/2000/svg">
  <sodipodi:namedview
     id="namedview1"
     pagecolor="#ffffff"
     bordercolor="#000000"
     borderopacity="0.25"
     inkscape:showpageshadow="2"
     inkscape:pageopacity="0.0"
     inkscape:pagecheckerboard="0"
     inkscape:deskcolor="#d1d1d1"
     inkscape:document-units="mm"
     showgrid="true"
     inkscape:zoom="2.0208096"
     inkscape:cx="362.72591"
     inkscape:cy="377.81887"
     inkscape:window-width="2100"
     inkscape:window-height="1224"
     inkscape:window-x="2391"
     inkscape:window-y="-9"
     inkscape:window-maximized="1"
     inkscape:current-layer="layer1">
    <inkscape:grid
       id="grid1"
       units="mm"
       originx="-8.9466384"
       originy="-84.749993"
       spacingx="0.99999998"
       spacingy="1"
       empcolor="#0099e5"
       empopacity="0.30196078"
       color="#0099e5"
       opacity="0.14901961"
       empspacing="5"
       dotted="false"
       gridanglex="30"
       gridanglez="30"
       visible="true" />
  </sodipodi:namedview>
  <defs
     id="defs1">
    <defs
       id="id-87c2b1bd-ec57-4382-a797-bc8a89e6601c">
      <g
         id="id-1be4029b-dbc5-49f2-b286-b58a56953405">
        <g
           id="id-87397523-cc8a-4891-b312-a5d6446e2fcd">
          <path
             d="m 6.640625,-6.75 h -6.09375 l -0.1875,2.25 h 0.25 C 0.75,-6.109375 0.890625,-6.4375 2.40625,-6.4375 c 0.171875,0 0.4375,0 0.53125,0.015625 0.21875,0.046875 0.21875,0.15625 0.21875,0.375 v 5.265625 c 0,0.328125 0,0.46875 -1.046875,0.46875 H 1.703125 V 0 C 2.109375,-0.03125 3.125,-0.03125 3.59375,-0.03125 c 0.453125,0 1.484375,0 1.890625,0.03125 v -0.3125 h -0.40625 c -1.046875,0 -1.046875,-0.140625 -1.046875,-0.46875 v -5.265625 c 0,-0.1875 0,-0.328125 0.1875,-0.375 0.109375,-0.015625 0.375,-0.015625 0.5625,-0.015625 1.515625,0 1.65625,0.328125 1.796875,1.9375 h 0.25 z m 0,0"
             id="id-19158c57-8189-4bcf-a9a5-ebddea014b34" />
        </g>
        <g
           id="id-c585b723-b444-4c58-9254-86e9acb4f503">
          <path
             d="m 1.09375,-0.75 c 0,0.4375 -0.109375,0.4375 -0.78125,0.4375 V 0 c 0.359375,-0.015625 0.859375,-0.03125 1.140625,-0.03125 0.25,0 0.765625,0.015625 1.109375,0.03125 v -0.3125 c -0.671875,0 -0.78125,0 -0.78125,-0.4375 V -2.59375 C 1.78125,-3.625 2.5,-4.1875 3.125,-4.1875 c 0.640625,0 0.75,0.53125 0.75,1.109375 V -0.75 c 0,0.4375 -0.109375,0.4375 -0.78125,0.4375 V 0 c 0.34375,-0.015625 0.859375,-0.03125 1.125,-0.03125 0.25,0 0.78125,0.015625 1.109375,0.03125 v -0.3125 c -0.515625,0 -0.765625,0 -0.765625,-0.296875 v -1.90625 c 0,-0.859375 0,-1.15625 -0.3125,-1.515625 -0.140625,-0.171875 -0.46875,-0.375 -1.046875,-0.375 -0.84375,0 -1.28125,0.59375 -1.453125,0.984375 v -3.5 L 0.3125,-6.8125 V -6.5 c 0.703125,0 0.78125,0.0625 0.78125,0.5625 z m 0,0"
             id="id-3351f46b-fe55-49a8-85c6-bceb1f8f2bd4" />
        </g>
        <g
           id="id-dfcaa948-8afc-49d0-a55e-ba16dc8fd2ed">
          <path
             d="M 1.671875,-3.3125 V -4.40625 L 0.28125,-4.296875 v 0.3125 c 0.703125,0 0.78125,0.0625 0.78125,0.5625 V -0.75 c 0,0.4375 -0.109375,0.4375 -0.78125,0.4375 V 0 c 0.390625,-0.015625 0.859375,-0.03125 1.140625,-0.03125 0.390625,0 0.859375,0 1.265625,0.03125 V -0.3125 H 2.46875 c -0.734375,0 -0.75,-0.109375 -0.75,-0.46875 V -2.3125 c 0,-0.984375 0.421875,-1.875 1.171875,-1.875 0.0625,0 0.09375,0 0.109375,0.015625 -0.03125,0 -0.234375,0.125 -0.234375,0.390625 0,0.265625 0.21875,0.421875 0.4375,0.421875 0.171875,0 0.421875,-0.125 0.421875,-0.4375 0,-0.3125 -0.3125,-0.609375 -0.734375,-0.609375 -0.734375,0 -1.09375,0.671875 -1.21875,1.09375 z m 0,0"
             id="id-2be27b55-b353-4a35-b401-0650c63f4353" />
        </g>
        <g
           id="id-2436ac3e-c589-4871-b153-e55c6700ff2e">
          <path
             d="M 1.109375,-2.515625 C 1.171875,-4 2.015625,-4.25 2.359375,-4.25 c 1.015625,0 1.125,1.34375 1.125,1.734375 z m 0,0.21875 h 2.78125 c 0.21875,0 0.25,0 0.25,-0.21875 0,-0.984375 -0.546875,-1.953125 -1.78125,-1.953125 -1.15625,0 -2.078125,1.03125 -2.078125,2.28125 0,1.328125 1.046875,2.296875 2.1875,2.296875 C 3.6875,0.109375 4.140625,-1 4.140625,-1.1875 4.140625,-1.28125 4.0625,-1.3125 4,-1.3125 c -0.078125,0 -0.109375,0.0625 -0.125,0.140625 -0.34375,1.03125 -1.25,1.03125 -1.34375,1.03125 -0.5,0 -0.890625,-0.296875 -1.125,-0.671875 -0.296875,-0.46875 -0.296875,-1.125 -0.296875,-1.484375 z m 0,0"
             id="id-f1008450-66c2-4ade-ae2f-942d13dd359e" />
        </g>
        <g
           id="id-33aac3bc-8947-4671-b2a7-38a262433b51">
          <path
             d="m 3.3125,-0.75 c 0.046875,0.390625 0.3125,0.8125 0.78125,0.8125 0.21875,0 0.828125,-0.140625 0.828125,-0.953125 v -0.5625 h -0.25 v 0.5625 c 0,0.578125 -0.25,0.640625 -0.359375,0.640625 -0.328125,0 -0.375,-0.453125 -0.375,-0.5 v -1.984375 c 0,-0.421875 0,-0.8125 -0.359375,-1.1875 C 3.1875,-4.3125 2.6875,-4.46875 2.21875,-4.46875 c -0.828125,0 -1.515625,0.46875 -1.515625,1.125 0,0.296875 0.203125,0.46875 0.46875,0.46875 0.28125,0 0.453125,-0.203125 0.453125,-0.453125 0,-0.125 -0.046875,-0.453125 -0.515625,-0.453125 C 1.390625,-4.140625 1.875,-4.25 2.1875,-4.25 c 0.5,0 1.0625,0.390625 1.0625,1.28125 v 0.359375 c -0.515625,0.03125 -1.203125,0.0625 -1.828125,0.359375 -0.75,0.34375 -1,0.859375 -1,1.296875 0,0.8125 0.96875,1.0625 1.59375,1.0625 0.65625,0 1.109375,-0.40625 1.296875,-0.859375 z M 3.25,-2.390625 v 1 c 0,0.9375 -0.71875,1.28125 -1.171875,1.28125 -0.484375,0 -0.890625,-0.34375 -0.890625,-0.84375 0,-0.546875 0.421875,-1.375 2.0625,-1.4375 z m 0,0"
             id="id-1d75f971-afee-440c-b7b9-e8d5cccb7e8a" />
        </g>
        <g
           id="id-c4e6b57a-5d2d-46aa-b0c9-f6dcd97865f2">
          <path
             d="m 3.78125,-0.546875 v 0.65625 L 5.25,0 v -0.3125 c -0.6875,0 -0.78125,-0.0625 -0.78125,-0.5625 V -6.921875 L 3.046875,-6.8125 V -6.5 c 0.6875,0 0.765625,0.0625 0.765625,0.5625 v 2.15625 c -0.28125,-0.359375 -0.71875,-0.625 -1.25,-0.625 -1.171875,0 -2.21875,0.984375 -2.21875,2.265625 0,1.265625 0.96875,2.25 2.109375,2.25 0.640625,0 1.078125,-0.34375 1.328125,-0.65625 z m 0,-2.671875 v 2.046875 c 0,0.171875 0,0.1875 -0.109375,0.359375 C 3.375,-0.328125 2.9375,-0.109375 2.5,-0.109375 2.046875,-0.109375 1.6875,-0.375 1.453125,-0.75 1.203125,-1.15625 1.171875,-1.71875 1.171875,-2.140625 1.171875,-2.5 1.1875,-3.09375 1.46875,-3.546875 1.6875,-3.859375 2.0625,-4.1875 2.609375,-4.1875 c 0.34375,0 0.765625,0.15625 1.0625,0.59375 0.109375,0.171875 0.109375,0.1875 0.109375,0.375 z m 0,0"
             id="id-b008ef41-3b37-43db-85a8-6e29566dff9c" />
        </g>
        <g
           id="id-fa717904-50fe-4d42-ad68-7f500a5419f7">
          <path
             d="m 2.046875,-3.984375 h 0.9375 c 0.203125,0 0.3125,0 0.3125,-0.203125 0,-0.109375 -0.109375,-0.109375 -0.28125,-0.109375 h -0.875 C 2.5,-5.71875 2.546875,-5.90625 2.546875,-5.96875 c 0,-0.171875 -0.125,-0.265625 -0.296875,-0.265625 -0.03125,0 -0.3125,0 -0.390625,0.359375 L 1.46875,-4.296875 h -0.9375 c -0.203125,0 -0.296875,0 -0.296875,0.1875 0,0.125 0.078125,0.125 0.28125,0.125 h 0.875 C 0.671875,-1.15625 0.625,-0.984375 0.625,-0.8125 0.625,-0.265625 1,0.109375 1.546875,0.109375 2.5625,0.109375 3.125,-1.34375 3.125,-1.421875 3.125,-1.53125 3.046875,-1.53125 3.015625,-1.53125 2.921875,-1.53125 2.90625,-1.5 2.859375,-1.390625 2.4375,-0.34375 1.90625,-0.109375 1.5625,-0.109375 c -0.203125,0 -0.3125,-0.125 -0.3125,-0.453125 0,-0.25 0.03125,-0.3125 0.0625,-0.484375 z m 0,0"
             id="id-db3461a0-34e5-455c-884e-44f20d2ed813" />
        </g>
        <g
           id="id-abbba41a-49af-467e-a5de-6aca1dfcdd85">
          <path
             d="M 3.59375,-2.21875 C 3.59375,-2.984375 3.5,-3.546875 3.1875,-4.03125 2.96875,-4.34375 2.53125,-4.625 1.984375,-4.625 c -1.625,0 -1.625,1.90625 -1.625,2.40625 0,0.5 0,2.359375 1.625,2.359375 1.609375,0 1.609375,-1.859375 1.609375,-2.359375 z M 1.984375,-0.0625 c -0.328125,0 -0.75,-0.1875 -0.890625,-0.75 C 1,-1.21875 1,-1.796875 1,-2.3125 1,-2.828125 1,-3.359375 1.09375,-3.734375 1.25,-4.28125 1.6875,-4.4375 1.984375,-4.4375 c 0.375,0 0.734375,0.234375 0.859375,0.640625 0.109375,0.375 0.125,0.875 0.125,1.484375 0,0.515625 0,1.03125 -0.09375,1.46875 -0.140625,0.640625 -0.609375,0.78125 -0.890625,0.78125 z m 0,0"
             id="id-8faed731-25f6-4796-ac45-a94bb5466d8a" />
        </g>
        <g
           id="id-79905533-118e-4b6b-ba8d-b37fc5279e27">
          <path
             d="m 2.328125,-4.4375 c 0,-0.1875 0,-0.1875 -0.203125,-0.1875 -0.453125,0.4375 -1.078125,0.4375 -1.359375,0.4375 v 0.25 c 0.15625,0 0.625,0 1,-0.1875 v 3.546875 c 0,0.234375 0,0.328125 -0.6875,0.328125 H 0.8125 V 0 c 0.125,0 0.984375,-0.03125 1.234375,-0.03125 0.21875,0 1.09375,0.03125 1.25,0.03125 V -0.25 H 3.03125 c -0.703125,0 -0.703125,-0.09375 -0.703125,-0.328125 z m 0,0"
             id="id-56c87e4b-bab4-4e5a-b56a-c7ef103b847d" />
        </g>
        <g
           id="id-580040ae-9a0f-47a9-9463-25860e006bb3">
          <path
             d="M 3.515625,-1.265625 H 3.28125 c -0.015625,0.15625 -0.09375,0.5625 -0.1875,0.625 C 3.046875,-0.59375 2.515625,-0.59375 2.40625,-0.59375 H 1.125 c 0.734375,-0.640625 0.984375,-0.84375 1.390625,-1.171875 0.515625,-0.40625 1,-0.84375 1,-1.5 0,-0.84375 -0.734375,-1.359375 -1.625,-1.359375 -0.859375,0 -1.453125,0.609375 -1.453125,1.25 0,0.34375 0.296875,0.390625 0.375,0.390625 0.15625,0 0.359375,-0.125 0.359375,-0.375 0,-0.125 -0.046875,-0.375 -0.40625,-0.375 C 0.984375,-4.21875 1.453125,-4.375 1.78125,-4.375 c 0.703125,0 1.0625,0.546875 1.0625,1.109375 0,0.609375 -0.4375,1.078125 -0.65625,1.328125 L 0.515625,-0.265625 C 0.4375,-0.203125 0.4375,-0.1875 0.4375,0 h 2.875 z m 0,0"
             id="id-5c1c1ff6-7c56-4928-bf0f-bab2d1a8702a" />
        </g>
      </g>
    </defs>
  </defs>
  <g
     inkscape:label="Layer 1"
     inkscape:groupmode="layer"
     id="layer1"
     transform="translate(-8.9466386,-84.749993)">
    <rect
       style="fill:#ffffff;fill-rule:evenodd;stroke:#ffffff;stroke-width:0.499999;stroke-linecap:square;stroke-linejoin:miter;stroke-miterlimit:5.9"
       id="rect20"
       width="235.55336"
       height="148.31152"
       x="9.1966381"
       y="84.999992" />
    <rect
       style="fill:#d7f4d7;fill-rule:evenodd;stroke:#d7f4d7;stroke-width:0.499999;stroke-linecap:square;stroke-linejoin:miter;stroke-miterlimit:5.9"
       id="rect19"
       width="63.006889"
       height="128.06152"
       x="53.496552"
       y="95.249992" />
    <rect
       style="fill:none;fill-rule:evenodd;stroke:#000000;stroke-width:0.499999;stroke-linecap:square;stroke-miterlimit:5.9"
       id="rect1"
       width="59.5"
       height="14.18223"
       x="55.250004"
       y="112.18613" />
    <text
       xml:space="preserve"
       style="font-size:7.05556px;line-height:1.15;font-family:'CMU Typewriter Text';-inkscape-font-specification:'CMU Typewriter Text';text-align:center;letter-spacing:0px;word-spacing:0px;text-anchor:middle;fill:none;fill-rule:evenodd;stroke:#000000;stroke-width:0.499999;stroke-linecap:square;stroke-miterlimit:5.9"
       x="32.628029"
       y="121.76433"
       id="text1"><tspan
         sodipodi:role="line"
         id="tspan1"
         style="font-style:normal;font-variant:normal;font-weight:normal;font-stretch:normal;font-family:'CMU Serif';-inkscape-font-specification:'CMU Serif';fill:#000000;stroke:none;stroke-width:0.5"
         x="32.628029"
         y="121.76433">Thread A</tspan></text>
    <text
       xml:space="preserve"
       style="font-size:7.05556px;line-height:1.15;font-family:'CMU Typewriter Text';-inkscape-font-specification:'CMU Typewriter Text';text-align:center;letter-spacing:0px;word-spacing:0px;text-anchor:middle;fill:none;fill-rule:evenodd;stroke:#000000;stroke-width:0.499999;stroke-linecap:square;stroke-miterlimit:5.9"
       x="85.377472"
       y="120.98469"
       id="text2"><tspan
         sodipodi:role="line"
         id="tspan2"
         style="font-style:normal;font-variant:normal;font-weight:normal;font-stretch:normal;font-family:'CMU Typewriter Text';-inkscape-font-specification:'CMU Typewriter Text';fill:#000000;stroke:none;stroke-width:0.5"
         x="85.377472"
         y="120.98469">statement A0;</tspan></text>
    <rect
       style="fill:none;fill-rule:evenodd;stroke:#000000;stroke-width:0.499999;stroke-linecap:square;stroke-miterlimit:5.9"
       id="rect2"
       width="59.5"
       height="14.18223"
       x="114.75"
       y="112.18613" />
    <rect
       style="fill:none;fill-rule:evenodd;stroke:#000000;stroke-width:0.499999;stroke-linecap:square;stroke-miterlimit:5.9"
       id="rect4"
       width="59.5"
       height="14.18223"
       x="55.250004"
       y="132.18613" />
    <text
       xml:space="preserve"
       style="font-size:7.05556px;line-height:1.15;font-family:'CMU Typewriter Text';-inkscape-font-specification:'CMU Typewriter Text';text-align:center;letter-spacing:0px;word-spacing:0px;text-anchor:middle;fill:none;fill-rule:evenodd;stroke:#000000;stroke-width:0.499999;stroke-linecap:square;stroke-miterlimit:5.9"
       x="32.628029"
       y="141.76433"
       id="text4"><tspan
         sodipodi:role="line"
         id="tspan4"
         style="font-style:normal;font-variant:normal;font-weight:normal;font-stretch:normal;font-family:'CMU Serif';-inkscape-font-specification:'CMU Serif';fill:#000000;stroke:none;stroke-width:0.5"
         x="32.628029"
         y="141.76433">Thread B</tspan></text>
    <rect
       style="fill:none;fill-rule:evenodd;stroke:#000000;stroke-width:0.499999;stroke-linecap:square;stroke-miterlimit:5.9"
       id="rect5"
       width="59.5"
       height="14.18223"
       x="114.75"
       y="132.18613" />
    <text
       xml:space="preserve"
       style="font-size:7.05556px;line-height:1.15;font-family:'CMU Typewriter Text';-inkscape-font-specification:'CMU Typewriter Text';text-align:center;letter-spacing:0px;word-spacing:0px;text-anchor:middle;fill:none;fill-rule:evenodd;stroke:#000000;stroke-width:0.499999;stroke-linecap:square;stroke-miterlimit:5.9"
       x="144.87747"
       y="140.98468"
       id="text6"><tspan
         sodipodi:role="line"
         id="tspan6"
         style="font-style:normal;font-variant:normal;font-weight:normal;font-stretch:normal;font-family:'CMU Typewriter Text';-inkscape-font-specification:'CMU Typewriter Text';fill:#000000;stroke:none;stroke-width:0.5"
         x="144.87747"
         y="140.98468">statement B1;</tspan></text>
    <rect
       style="fill:none;fill-rule:evenodd;stroke:#000000;stroke-width:0.499999;stroke-linecap:square;stroke-miterlimit:5.9"
       id="rect7"
       width="59.5"
       height="14.18223"
       x="55.250004"
       y="152.18613" />
    <text
       xml:space="preserve"
       style="font-size:7.05556px;line-height:1.15;font-family:'CMU Typewriter Text';-inkscape-font-specification:'CMU Typewriter Text';text-align:center;letter-spacing:0px;word-spacing:0px;text-anchor:middle;fill:none;fill-rule:evenodd;stroke:#000000;stroke-width:0.499999;stroke-linecap:square;stroke-miterlimit:5.9"
       x="32.628029"
       y="161.76433"
       id="text7"><tspan
         sodipodi:role="line"
         id="tspan7"
         style="font-style:normal;font-variant:normal;font-weight:normal;font-stretch:normal;font-family:'CMU Serif';-inkscape-font-specification:'CMU Serif';fill:#000000;stroke:none;stroke-width:0.5"
         x="32.628029"
         y="161.76433">Thread C</tspan></text>
    <text
       xml:space="preserve"
       style="font-size:7.05556px;line-height:1.15;font-family:'CMU Typewriter Text';-inkscape-font-specification:'CMU Typewriter Text';text-align:center;letter-spacing:0px;word-spacing:0px;text-anchor:middle;fill:none;fill-rule:evenodd;stroke:#000000;stroke-width:0.499999;stroke-linecap:square;stroke-miterlimit:5.9"
       x="85.377472"
       y="160.98468"
       id="text8"><tspan
         sodipodi:role="line"
         id="tspan8"
         style="font-style:normal;font-variant:normal;font-weight:normal;font-stretch:normal;font-family:'CMU Typewriter Text';-inkscape-font-specification:'CMU Typewriter Text';fill:#000000;stroke:none;stroke-width:0.5"
         x="85.377472"
         y="160.98468">statement C0;</tspan></text>
    <rect
       style="fill:none;fill-rule:evenodd;stroke:#000000;stroke-width:0.499999;stroke-linecap:square;stroke-miterlimit:5.9"
       id="rect8"
       width="59.5"
       height="14.18223"
       x="114.75"
       y="152.18613" />
    <text
       xml:space="preserve"
       style="font-size:7.05556px;line-height:1.15;font-family:'CMU Typewriter Text';-inkscape-font-specification:'CMU Typewriter Text';text-align:center;letter-spacing:0px;word-spacing:0px;text-anchor:middle;fill:none;fill-rule:evenodd;stroke:#000000;stroke-width:0.499999;stroke-linecap:square;stroke-miterlimit:5.9"
       x="144.87747"
       y="160.98468"
       id="text9"><tspan
         sodipodi:role="line"
         id="tspan9"
         style="font-style:normal;font-variant:normal;font-weight:normal;font-stretch:normal;font-family:'CMU Typewriter Text';-inkscape-font-specification:'CMU Typewriter Text';fill:#000000;stroke:none;stroke-width:0.5"
         x="144.87747"
         y="160.98468">statement C1;</tspan></text>
    <rect
       style="fill:none;fill-rule:evenodd;stroke:#000000;stroke-width:0.499999;stroke-linecap:square;stroke-miterlimit:5.9"
       id="rect10"
       width="59.5"
       height="14.18223"
       x="55.250004"
       y="172.18613" />
    <text
       xml:space="preserve"
       style="font-size:7.05556px;line-height:1.15;font-family:'CMU Typewriter Text';-inkscape-font-specification:'CMU Typewriter Text';text-align:center;letter-spacing:0px;word-spacing:0px;text-anchor:middle;fill:none;fill-rule:evenodd;stroke:#000000;stroke-width:0.499999;stroke-linecap:square;stroke-miterlimit:5.9"
       x="32.628029"
       y="181.76433"
       id="text10"><tspan
         sodipodi:role="line"
         id="tspan10"
         style="font-style:normal;font-variant:normal;font-weight:normal;font-stretch:normal;font-family:'CMU Serif';-inkscape-font-specification:'CMU Serif';fill:#000000;stroke:none;stroke-width:0.5"
         x="32.628029"
         y="181.76433">Thread D</tspan></text>
    <text
       xml:space="preserve"
       style="font-size:7.05556px;line-height:1.15;font-family:'CMU Typewriter Text';-inkscape-font-specification:'CMU Typewriter Text';text-align:center;letter-spacing:0px;word-spacing:0px;text-anchor:middle;fill:none;fill-rule:evenodd;stroke:#000000;stroke-width:0.499999;stroke-linecap:square;stroke-miterlimit:5.9"
       x="85.377472"
       y="180.98468"
       id="text11"><tspan
         sodipodi:role="line"
         id="tspan11"
         style="font-style:normal;font-variant:normal;font-weight:normal;font-stretch:normal;font-family:'CMU Typewriter Text';-inkscape-font-specification:'CMU Typewriter Text';fill:#000000;stroke:none;stroke-width:0.5"
         x="85.377472"
         y="180.98468">statement D0;</tspan></text>
    <rect
       style="fill:none;fill-rule:evenodd;stroke:#000000;stroke-width:0.499999;stroke-linecap:square;stroke-miterlimit:5.9"
       id="rect11"
       width="59.5"
       height="14.18223"
       x="114.75"
       y="172.18613" />
    <text
       xml:space="preserve"
       style="font-size:7.05556px;line-height:1.15;font-family:'CMU Typewriter Text';-inkscape-font-specification:'CMU Typewriter Text';text-align:center;letter-spacing:0px;word-spacing:0px;text-anchor:middle;fill:none;fill-rule:evenodd;stroke:#000000;stroke-width:0.499999;stroke-linecap:square;stroke-miterlimit:5.9"
       x="144.87747"
       y="180.98468"
       id="text12"><tspan
         sodipodi:role="line"
         id="tspan12"
         style="font-style:normal;font-variant:normal;font-weight:normal;font-stretch:normal;font-family:'CMU Typewriter Text';-inkscape-font-specification:'CMU Typewriter Text';fill:#000000;stroke:none;stroke-width:0.5"
         x="144.87747"
         y="180.98468">statement D1;</tspan></text>
    <g
       id="g12"
       transform="matrix(1.2,0,0,1.2,1.5199213,0.0228535)"
       style="stroke-width:0.833333">
      <g
         fill="#000000"
         fill-opacity="1"
         id="id-f6d96a32-c4c5-437a-b99d-14a109e69f89"
         transform="matrix(0.705556,0,0,0.705556,-37.977682,-15.062208)"
         style="stroke-width:0.833333">
        <g
           transform="translate(148.712,146.72)"
           id="g8357"
           style="stroke-width:0.833333">
          <path
             d="m 2.046875,-3.984375 h 0.9375 c 0.203125,0 0.3125,0 0.3125,-0.203125 0,-0.109375 -0.109375,-0.109375 -0.28125,-0.109375 h -0.875 C 2.5,-5.71875 2.546875,-5.90625 2.546875,-5.96875 c 0,-0.171875 -0.125,-0.265625 -0.296875,-0.265625 -0.03125,0 -0.3125,0 -0.390625,0.359375 L 1.46875,-4.296875 h -0.9375 c -0.203125,0 -0.296875,0 -0.296875,0.1875 0,0.125 0.078125,0.125 0.28125,0.125 h 0.875 C 0.671875,-1.15625 0.625,-0.984375 0.625,-0.8125 0.625,-0.265625 1,0.109375 1.546875,0.109375 2.5625,0.109375 3.125,-1.34375 3.125,-1.421875 3.125,-1.53125 3.046875,-1.53125 3.015625,-1.53125 2.921875,-1.53125 2.90625,-1.5 2.859375,-1.390625 2.4375,-0.34375 1.90625,-0.109375 1.5625,-0.109375 c -0.203125,0 -0.3125,-0.125 -0.3125,-0.453125 0,-0.25 0.03125,-0.3125 0.0625,-0.484375 z m 0,0"
             id="id-cda6dde5-fd08-4aca-9b35-fccfb62a5b3b"
             style="stroke-width:0.833333" />
        </g>
      </g>
      <g
         fill="#000000"
         fill-opacity="1"
         id="id-342978aa-2c59-4230-9ab0-6b072ca0ec06"
         transform="matrix(0.705556,0,0,0.705556,-37.977682,-15.062208)"
         style="stroke-width:0.833333">
        <g
           transform="translate(152.31,148.214)"
           id="g3908"
           style="stroke-width:0.833333">
          <path
             d="M 3.59375,-2.21875 C 3.59375,-2.984375 3.5,-3.546875 3.1875,-4.03125 2.96875,-4.34375 2.53125,-4.625 1.984375,-4.625 c -1.625,0 -1.625,1.90625 -1.625,2.40625 0,0.5 0,2.359375 1.625,2.359375 1.609375,0 1.609375,-1.859375 1.609375,-2.359375 z M 1.984375,-0.0625 c -0.328125,0 -0.75,-0.1875 -0.890625,-0.75 C 1,-1.21875 1,-1.796875 1,-2.3125 1,-2.828125 1,-3.359375 1.09375,-3.734375 1.25,-4.28125 1.6875,-4.4375 1.984375,-4.4375 c 0.375,0 0.734375,0.234375 0.859375,0.640625 0.109375,0.375 0.125,0.875 0.125,1.484375 0,0.515625 0,1.03125 -0.09375,1.46875 -0.140625,0.640625 -0.609375,0.78125 -0.890625,0.78125 z m 0,0"
             id="id-566afad7-b30c-4fb1-ac5d-72d210895b11"
             style="stroke-width:0.833333" />
        </g>
      </g>
    </g>
    <g
       id="g13"
       transform="matrix(1.2,0,0,1.2,61.145595,-10.039521)"
       style="stroke-width:0.833333">
      <g
         fill="#000000"
         fill-opacity="1"
         id="id-9a05ceb1-dd97-4f25-bd8e-8faf8932858c"
         transform="matrix(0.705556,0,0,0.705556,-37.977682,-15.062208)"
         style="stroke-width:0.833333">
        <g
           transform="translate(148.712,158.675)"
           id="g8895"
           style="stroke-width:0.833333">
          <path
             d="m 2.046875,-3.984375 h 0.9375 c 0.203125,0 0.3125,0 0.3125,-0.203125 0,-0.109375 -0.109375,-0.109375 -0.28125,-0.109375 h -0.875 C 2.5,-5.71875 2.546875,-5.90625 2.546875,-5.96875 c 0,-0.171875 -0.125,-0.265625 -0.296875,-0.265625 -0.03125,0 -0.3125,0 -0.390625,0.359375 L 1.46875,-4.296875 h -0.9375 c -0.203125,0 -0.296875,0 -0.296875,0.1875 0,0.125 0.078125,0.125 0.28125,0.125 h 0.875 C 0.671875,-1.15625 0.625,-0.984375 0.625,-0.8125 0.625,-0.265625 1,0.109375 1.546875,0.109375 2.5625,0.109375 3.125,-1.34375 3.125,-1.421875 3.125,-1.53125 3.046875,-1.53125 3.015625,-1.53125 2.921875,-1.53125 2.90625,-1.5 2.859375,-1.390625 2.4375,-0.34375 1.90625,-0.109375 1.5625,-0.109375 c -0.203125,0 -0.3125,-0.125 -0.3125,-0.453125 0,-0.25 0.03125,-0.3125 0.0625,-0.484375 z m 0,0"
             id="id-96bf06f6-4a86-4485-862b-85745639cef4"
             style="stroke-width:0.833333" />
        </g>
      </g>
      <g
         fill="#000000"
         fill-opacity="1"
         id="id-174b691d-379b-4bcf-bf54-9b1ab6d35f1d"
         transform="matrix(0.705556,0,0,0.705556,-37.977682,-15.062208)"
         style="stroke-width:0.833333">
        <g
           transform="translate(152.31,160.169)"
           id="g1945"
           style="stroke-width:0.833333">
          <path
             d="m 2.328125,-4.4375 c 0,-0.1875 0,-0.1875 -0.203125,-0.1875 -0.453125,0.4375 -1.078125,0.4375 -1.359375,0.4375 v 0.25 c 0.15625,0 0.625,0 1,-0.1875 v 3.546875 c 0,0.234375 0,0.328125 -0.6875,0.328125 H 0.8125 V 0 c 0.125,0 0.984375,-0.03125 1.234375,-0.03125 0.21875,0 1.09375,0.03125 1.25,0.03125 V -0.25 H 3.03125 c -0.703125,0 -0.703125,-0.09375 -0.703125,-0.328125 z m 0,0"
             id="id-e28e2dd3-2063-49d5-86fe-3f977f059c5b"
             style="stroke-width:0.833333" />
        </g>
      </g>
    </g>
    <g
       id="g14"
       transform="matrix(1.2,0,0,1.2,121.72976,-20.161851)"
       style="stroke-width:0.833333">
      <g
         fill="#000000"
         fill-opacity="1"
         id="id-19623234-40db-489d-8045-8b23d8ea2c10"
         transform="matrix(0.705556,0,0,0.705556,-37.977682,-15.062208)"
         style="stroke-width:0.833333">
        <g
           transform="translate(148.712,170.63)"
           id="g2525"
           style="stroke-width:0.833333">
          <path
             d="m 2.046875,-3.984375 h 0.9375 c 0.203125,0 0.3125,0 0.3125,-0.203125 0,-0.109375 -0.109375,-0.109375 -0.28125,-0.109375 h -0.875 C 2.5,-5.71875 2.546875,-5.90625 2.546875,-5.96875 c 0,-0.171875 -0.125,-0.265625 -0.296875,-0.265625 -0.03125,0 -0.3125,0 -0.390625,0.359375 L 1.46875,-4.296875 h -0.9375 c -0.203125,0 -0.296875,0 -0.296875,0.1875 0,0.125 0.078125,0.125 0.28125,0.125 h 0.875 C 0.671875,-1.15625 0.625,-0.984375 0.625,-0.8125 0.625,-0.265625 1,0.109375 1.546875,0.109375 2.5625,0.109375 3.125,-1.34375 3.125,-1.421875 3.125,-1.53125 3.046875,-1.53125 3.015625,-1.53125 2.921875,-1.53125 2.90625,-1.5 2.859375,-1.390625 2.4375,-0.34375 1.90625,-0.109375 1.5625,-0.109375 c -0.203125,0 -0.3125,-0.125 -0.3125,-0.453125 0,-0.25 0.03125,-0.3125 0.0625,-0.484375 z m 0,0"
             id="id-1850c502-ad89-4915-9f62-5318d49fba5e"
             style="stroke-width:0.833333" />
        </g>
      </g>
      <g
         fill="#000000"
         fill-opacity="1"
         id="id-4b88cd0c-64b7-44a1-a170-185a09d9943d"
         transform="matrix(0.705556,0,0,0.705556,-37.977682,-15.062208)"
         style="stroke-width:0.833333">
        <g
           transform="translate(152.31,172.125)"
           id="g4509"
           style="stroke-width:0.833333">
          <path
             d="M 3.515625,-1.265625 H 3.28125 c -0.015625,0.15625 -0.09375,0.5625 -0.1875,0.625 C 3.046875,-0.59375 2.515625,-0.59375 2.40625,-0.59375 H 1.125 c 0.734375,-0.640625 0.984375,-0.84375 1.390625,-1.171875 0.515625,-0.40625 1,-0.84375 1,-1.5 0,-0.84375 -0.734375,-1.359375 -1.625,-1.359375 -0.859375,0 -1.453125,0.609375 -1.453125,1.25 0,0.34375 0.296875,0.390625 0.375,0.390625 0.15625,0 0.359375,-0.125 0.359375,-0.375 0,-0.125 -0.046875,-0.375 -0.40625,-0.375 C 0.984375,-4.21875 1.453125,-4.375 1.78125,-4.375 c 0.703125,0 1.0625,0.546875 1.0625,1.109375 0,0.609375 -0.4375,1.078125 -0.65625,1.328125 L 0.515625,-0.265625 C 0.4375,-0.203125 0.4375,-0.1875 0.4375,0 h 2.875 z m 0,0"
             id="id-b7d8aaaa-2353-42bc-954f-bbdf65bae6d5"
             style="stroke-width:0.833333" />
        </g>
      </g>
    </g>
    <text
       xml:space="preserve"
       style="font-size:7.05556px;line-height:1.15;font-family:'CMU Typewriter Text';-inkscape-font-specification:'CMU Typewriter Text';text-align:center;letter-spacing:0px;word-spacing:0px;text-anchor:middle;fill:none;fill-rule:evenodd;stroke:#000000;stroke-width:0.499999;stroke-linecap:square;stroke-miterlimit:5.9"
       x="84.70623"
       y="215.0134"
       id="text4-4"><tspan
         sodipodi:role="line"
         id="tspan4-6"
         style="font-style:normal;font-variant:normal;font-weight:normal;font-stretch:normal;font-family:'CMU Serif';-inkscape-font-specification:'CMU Serif';fill:#000000;stroke:none;stroke-width:0.5"
         x="84.70623"
         y="215.0134">Ready events queue</tspan></text>
    <text
       xml:space="preserve"
       style="font-size:7.05556px;line-height:1.15;font-family:'CMU Typewriter Text';-inkscape-font-specification:'CMU Typewriter Text';text-align:center;letter-spacing:0px;word-spacing:0px;text-anchor:middle;fill:none;fill-rule:evenodd;stroke:#000000;stroke-width:0.499999;stroke-linecap:square;stroke-miterlimit:5.9"
       x="174.36089"
       y="215.00281"
       id="text4-4-3"><tspan
         sodipodi:role="line"
         id="tspan4-6-1"
         style="font-style:normal;font-variant:normal;font-weight:normal;font-stretch:normal;font-family:'CMU Serif';-inkscape-font-specification:'CMU Serif';fill:#000000;stroke:none;stroke-width:0.5"
         x="174.36089"
         y="215.00281">Future events queue</tspan></text>
    <path
       style="fill:none;fill-rule:evenodd;stroke:#000000;stroke-width:0.500001;stroke-linecap:square;stroke-linejoin:miter;stroke-miterlimit:5.1;stroke-dasharray:none"
       d="m 233.77258,189.00001 c 0,16.55601 -50.91221,-2e-5 -59.39759,16.55601 -8.48536,-16.55603 -59.39759,0 -59.39759,-16.55603"
       id="path6"
       sodipodi:nodetypes="ccc" />
    <path
       style="fill:none;fill-rule:evenodd;stroke:#000000;stroke-width:0.499999;stroke-linecap:square;stroke-linejoin:miter;stroke-miterlimit:5.9"
       d="m 174.25,112.18613 v 14.18222 h 59.5 L 226.00001,120 236,116.62534 l -2.25,-4.43921 h -59.5"
       id="path15"
       sodipodi:nodetypes="ccccccc" />
    <path
       style="fill:none;fill-rule:evenodd;stroke:#000000;stroke-width:0.499999;stroke-linecap:square;stroke-linejoin:miter;stroke-miterlimit:5.9"
       d="m 174.25,132.18613 v 14.18222 h 59.5 L 226.00001,140 236,136.62534 l -2.25,-4.43921 h -59.5"
       id="path16"
       sodipodi:nodetypes="ccccccc" />
    <path
       style="fill:none;fill-rule:evenodd;stroke:#000000;stroke-width:0.499999;stroke-linecap:square;stroke-linejoin:miter;stroke-miterlimit:5.9"
       d="m 174.25,152.18613 v 14.18222 h 59.5 L 226.00001,160 236,156.62534 l -2.25,-4.43921 h -59.5"
       id="path17"
       sodipodi:nodetypes="ccccccc" />
    <path
       style="fill:none;fill-rule:evenodd;stroke:#000000;stroke-width:0.499999;stroke-linecap:square;stroke-linejoin:miter;stroke-miterlimit:5.9"
       d="m 174.25,172.18613 v 14.18222 h 59.5 L 226.00001,180 236,176.62534 l -2.25,-4.43921 h -59.5"
       id="path18"
       sodipodi:nodetypes="ccccccc" />
    <path
       style="fill:none;fill-rule:evenodd;stroke:#000000;stroke-width:0.500001;stroke-linecap:square;stroke-linejoin:miter;stroke-miterlimit:5.1;stroke-dasharray:none"
       d="m 114.44449,189.00001 c 0,16.55601 -25.471786,-2e-5 -29.71709,16.55601 -4.245294,-16.55603 -29.717092,0 -29.717092,-16.55603"
       id="path19"
       sodipodi:nodetypes="ccc" />
  </g>
</svg>
